{
	"asset":{
		"generator":"Khronos glTF Blender I/O v4.2.83",
		"version":"2.0"
	},
	"extensionsUsed":[
		"KHR_materials_specular"
	],
	"scene":0,
	"scenes":[
		{
			"name":"Scene",
			"nodes":[
				6
			]
		}
	],
	"nodes":[
		{
			"name":"base",
			"rotation":[
				-0.7071067690849304,
				0,
				0,
				0.7071067690849304
			]
		},
		{
			"name":"button_A",
			"rotation":[
				-0.7071067690849304,
				0,
				0,
				0.7071067690849304
			],
			"translation":[
				0.3448893427848816,
				0.26486656069755554,
				-0.843899130821228
			]
		},
		{
			"name":"button_X",
			"rotation":[
				-0.7071067690849304,
				0,
				0,
				0.7071067690849304
			],
			"translation":[
				-0.35163652896881104,
				0.26486656069755554,
				-0.843899130821228
			]
		},
		{
			"mesh":0,
			"name":"base__MI_ControlPanel_01",
			"skin":0
		},
		{
			"mesh":1,
			"name":"button_A__MI_ControlPanel_A",
			"skin":0
		},
		{
			"mesh":2,
			"name":"button_X__MI_ControlPanel_X",
			"skin":0
		},
		{
			"children":[
				3,
				4,
				5,
				0,
				1,
				2
			],
			"name":"CraneGameButton",
			"rotation":[
				0.7071068286895752,
				0,
				0,
				0.7071068286895752
			]
		}
	],
	"materials":[
		{
			"doubleSided":true,
			"extensions":{
				"KHR_materials_specular":{
					"specularFactor":0
				}
			},
			"name":"MI_ControlPanel_01",
			"pbrMetallicRoughness":{
				"baseColorTexture":{
					"index":0
				},
				"metallicFactor":0
			}
		},
		{
			"doubleSided":true,
			"extensions":{
				"KHR_materials_specular":{
					"specularFactor":0
				}
			},
			"name":"MI_ControlPanel_A",
			"pbrMetallicRoughness":{
				"baseColorTexture":{
					"index":1
				},
				"metallicFactor":0
			}
		},
		{
			"doubleSided":true,
			"extensions":{
				"KHR_materials_specular":{
					"specularFactor":0
				}
			},
			"name":"MI_ControlPanel_X",
			"pbrMetallicRoughness":{
				"baseColorTexture":{
					"index":2
				},
				"metallicFactor":0
			}
		}
	],
	"meshes":[
		{
			"name":"base__MI_ControlPanel_01",
			"primitives":[
				{
					"attributes":{
						"POSITION":0,
						"NORMAL":1,
						"TEXCOORD_0":2,
						"COLOR_0":3,
						"COLOR_1":4,
						"JOINTS_0":5,
						"WEIGHTS_0":6
					},
					"indices":7,
					"material":0
				}
			]
		},
		{
			"name":"button_A__MI_ControlPanel_A",
			"primitives":[
				{
					"attributes":{
						"POSITION":9,
						"NORMAL":10,
						"TEXCOORD_0":11,
						"COLOR_0":12,
						"COLOR_1":13,
						"JOINTS_0":14,
						"WEIGHTS_0":15
					},
					"indices":16,
					"material":1
				}
			]
		},
		{
			"name":"button_X__MI_ControlPanel_X",
			"primitives":[
				{
					"attributes":{
						"POSITION":17,
						"NORMAL":18,
						"TEXCOORD_0":19,
						"COLOR_0":20,
						"COLOR_1":21,
						"JOINTS_0":22,
						"WEIGHTS_0":23
					},
					"indices":24,
					"material":2
				}
			]
		}
	],
	"textures":[
		{
			"sampler":0,
			"source":0
		},
		{
			"sampler":0,
			"source":0
		},
		{
			"sampler":0,
			"source":0
		}
	],
	"images":[
		{
			"mimeType":"image/png",
			"name":"MI_ControlPanel_01_alb",
			"uri":"textures/MI_ControlPanel_01_alb.png"
		}
	],
	"skins":[
		{
			"inverseBindMatrices":8,
			"joints":[
				0,
				1,
				2
			],
			"name":"CraneGameButton"
		}
	],
	"accessors":[
		{
			"bufferView":0,
			"componentType":5126,
			"count":275,
			"max":[
				0.8141257166862488,
				1.0278290510177612,
				0.3856208920478821
			],
			"min":[
				-0.8141255378723145,
				0,
				-0.39119771122932434
			],
			"type":"VEC3"
		},
		{
			"bufferView":1,
			"componentType":5126,
			"count":275,
			"type":"VEC3"
		},
		{
			"bufferView":2,
			"componentType":5126,
			"count":275,
			"type":"VEC2"
		},
		{
			"bufferView":3,
			"componentType":5121,
			"count":275,
			"normalized":true,
			"type":"VEC4"
		},
		{
			"bufferView":4,
			"componentType":5126,
			"count":275,
			"type":"VEC3"
		},
		{
			"bufferView":5,
			"componentType":5121,
			"count":275,
			"type":"VEC4"
		},
		{
			"bufferView":6,
			"componentType":5126,
			"count":275,
			"type":"VEC4"
		},
		{
			"bufferView":7,
			"componentType":5123,
			"count":774,
			"type":"SCALAR"
		},
		{
			"bufferView":8,
			"componentType":5126,
			"count":3,
			"type":"MAT4"
		},
		{
			"bufferView":9,
			"componentType":5126,
			"count":144,
			"max":[
				0.6517432332038879,
				1.0173389911651611,
				0.3905250132083893
			],
			"min":[
				0.03803572058677673,
				0.4857737123966217,
				-0.06983978301286697
			],
			"type":"VEC3"
		},
		{
			"bufferView":10,
			"componentType":5126,
			"count":144,
			"type":"VEC3"
		},
		{
			"bufferView":11,
			"componentType":5126,
			"count":144,
			"type":"VEC2"
		},
		{
			"bufferView":12,
			"componentType":5121,
			"count":144,
			"normalized":true,
			"type":"VEC4"
		},
		{
			"bufferView":13,
			"componentType":5126,
			"count":144,
			"type":"VEC3"
		},
		{
			"bufferView":14,
			"componentType":5121,
			"count":144,
			"type":"VEC4"
		},
		{
			"bufferView":15,
			"componentType":5126,
			"count":144,
			"type":"VEC4"
		},
		{
			"bufferView":16,
			"componentType":5123,
			"count":660,
			"type":"SCALAR"
		},
		{
			"bufferView":17,
			"componentType":5126,
			"count":144,
			"max":[
				-0.04511069878935814,
				1.0181900262832642,
				0.39119789004325867
			],
			"min":[
				-0.6581627130508423,
				0.4859512150287628,
				-0.06975436210632324
			],
			"type":"VEC3"
		},
		{
			"bufferView":18,
			"componentType":5126,
			"count":144,
			"type":"VEC3"
		},
		{
			"bufferView":19,
			"componentType":5126,
			"count":144,
			"type":"VEC2"
		},
		{
			"bufferView":20,
			"componentType":5121,
			"count":144,
			"normalized":true,
			"type":"VEC4"
		},
		{
			"bufferView":21,
			"componentType":5126,
			"count":144,
			"type":"VEC3"
		},
		{
			"bufferView":22,
			"componentType":5121,
			"count":144,
			"type":"VEC4"
		},
		{
			"bufferView":23,
			"componentType":5126,
			"count":144,
			"type":"VEC4"
		},
		{
			"bufferView":24,
			"componentType":5123,
			"count":660,
			"type":"SCALAR"
		}
	],
	"bufferViews":[
		{
			"buffer":0,
			"byteLength":3300,
			"byteOffset":0,
			"target":34962
		},
		{
			"buffer":0,
			"byteLength":3300,
			"byteOffset":3300,
			"target":34962
		},
		{
			"buffer":0,
			"byteLength":2200,
			"byteOffset":6600,
			"target":34962
		},
		{
			"buffer":0,
			"byteLength":1100,
			"byteOffset":8800,
			"target":34962
		},
		{
			"buffer":0,
			"byteLength":3300,
			"byteOffset":9900,
			"target":34962
		},
		{
			"buffer":0,
			"byteLength":1100,
			"byteOffset":13200,
			"target":34962
		},
		{
			"buffer":0,
			"byteLength":4400,
			"byteOffset":14300,
			"target":34962
		},
		{
			"buffer":0,
			"byteLength":1548,
			"byteOffset":18700,
			"target":34963
		},
		{
			"buffer":0,
			"byteLength":192,
			"byteOffset":20248
		},
		{
			"buffer":0,
			"byteLength":1728,
			"byteOffset":20440,
			"target":34962
		},
		{
			"buffer":0,
			"byteLength":1728,
			"byteOffset":22168,
			"target":34962
		},
		{
			"buffer":0,
			"byteLength":1152,
			"byteOffset":23896,
			"target":34962
		},
		{
			"buffer":0,
			"byteLength":576,
			"byteOffset":25048,
			"target":34962
		},
		{
			"buffer":0,
			"byteLength":1728,
			"byteOffset":25624,
			"target":34962
		},
		{
			"buffer":0,
			"byteLength":576,
			"byteOffset":27352,
			"target":34962
		},
		{
			"buffer":0,
			"byteLength":2304,
			"byteOffset":27928,
			"target":34962
		},
		{
			"buffer":0,
			"byteLength":1320,
			"byteOffset":30232,
			"target":34963
		},
		{
			"buffer":0,
			"byteLength":1728,
			"byteOffset":31552,
			"target":34962
		},
		{
			"buffer":0,
			"byteLength":1728,
			"byteOffset":33280,
			"target":34962
		},
		{
			"buffer":0,
			"byteLength":1152,
			"byteOffset":35008,
			"target":34962
		},
		{
			"buffer":0,
			"byteLength":576,
			"byteOffset":36160,
			"target":34962
		},
		{
			"buffer":0,
			"byteLength":1728,
			"byteOffset":36736,
			"target":34962
		},
		{
			"buffer":0,
			"byteLength":576,
			"byteOffset":38464,
			"target":34962
		},
		{
			"buffer":0,
			"byteLength":2304,
			"byteOffset":39040,
			"target":34962
		},
		{
			"buffer":0,
			"byteLength":1320,
			"byteOffset":41344,
			"target":34963
		}
	],
	"samplers":[
		{
			"magFilter":9729,
			"minFilter":9987
		}
	],
	"buffers":[
		{
			"byteLength":42664,
			"uri":"buttons.bin"
		}
	]
}
