{
	"asset":{
		"generator":"Khronos glTF Blender I/O v4.2.83",
		"version":"2.0"
	},
	"extensionsUsed":[
		"KHR_materials_specular"
	],
	"scene":0,
	"scenes":[
		{
			"name":"Scene",
			"nodes":[
				12
			]
		}
	],
	"nodes":[
		{
			"name":"arm_01",
			"translation":[
				0.36277130246162415,
				0,
				0
			]
		},
		{
			"name":"arm_02",
			"translation":[
				0.36277130246162415,
				0,
				0
			]
		},
		{
			"name":"arm_03",
			"translation":[
				0.36277130246162415,
				0,
				0
			]
		},
		{
			"name":"arm_04",
			"translation":[
				0.36277130246162415,
				0,
				0
			]
		},
		{
			"children":[
				0,
				1,
				2,
				3
			],
			"name":"base_01",
			"translation":[
				0,
				0,
				-4.613333225250244
			]
		},
		{
			"children":[
				4
			],
			"name":"root",
			"rotation":[
				-0.7071067690849304,
				0,
				0,
				0.7071067690849304
			],
			"translation":[
				0,
				0,
				-5.250000476837158
			]
		},
		{
			"mesh":0,
			"name":"arm01__MI_Crane_01",
			"skin":0
		},
		{
			"mesh":1,
			"name":"arm02__MI_Crane_01",
			"skin":0
		},
		{
			"mesh":2,
			"name":"arm03__MI_Crane_01",
			"skin":0
		},
		{
			"mesh":3,
			"name":"arm04__MI_Crane_01",
			"skin":0
		},
		{
			"mesh":4,
			"name":"Crane__MI_Crane_01",
			"skin":0
		},
		{
			"mesh":5,
			"name":"Crane__MI_Crane_02",
			"skin":0
		},
		{
			"children":[
				6,
				7,
				8,
				9,
				10,
				11,
				5
			],
			"name":"Armature",
			"scale":[
				0.02539999969303608,
				0.02539999969303608,
				0.02539999969303608
			],
			"translation":[
				0,
				0,
				0.13285782933235168
			]
		}
	],
	"materials":[
		{
			"doubleSided":true,
			"extensions":{
				"KHR_materials_specular":{
					"specularFactor":0
				}
			},
			"name":"MI_Crane_01.001",
			"pbrMetallicRoughness":{
				"baseColorTexture":{
					"index":0
				},
				"metallicFactor":0,
				"roughnessFactor":0.5
			}
		},
		{
			"doubleSided":true,
			"extensions":{
				"KHR_materials_specular":{
					"specularFactor":0
				}
			},
			"name":"MI_Crane_01.002",
			"pbrMetallicRoughness":{
				"baseColorTexture":{
					"index":1
				},
				"metallicFactor":0,
				"roughnessFactor":0.5
			}
		},
		{
			"doubleSided":true,
			"extensions":{
				"KHR_materials_specular":{
					"specularFactor":0
				}
			},
			"name":"MI_Crane_01.003",
			"pbrMetallicRoughness":{
				"baseColorTexture":{
					"index":2
				},
				"metallicFactor":0,
				"roughnessFactor":0.5
			}
		},
		{
			"doubleSided":true,
			"extensions":{
				"KHR_materials_specular":{
					"specularFactor":0
				}
			},
			"name":"MI_Crane_01.004",
			"pbrMetallicRoughness":{
				"baseColorTexture":{
					"index":3
				},
				"metallicFactor":0,
				"roughnessFactor":0.5
			}
		},
		{
			"doubleSided":true,
			"extensions":{
				"KHR_materials_specular":{
					"specularFactor":0
				}
			},
			"name":"MI_Crane_01",
			"pbrMetallicRoughness":{
				"baseColorTexture":{
					"index":4
				},
				"metallicFactor":0,
				"roughnessFactor":0.5
			}
		},
		{
			"doubleSided":true,
			"extensions":{
				"KHR_materials_specular":{
					"specularFactor":0
				}
			},
			"name":"MI_Crane_02",
			"pbrMetallicRoughness":{
				"baseColorTexture":{
					"index":5
				},
				"metallicFactor":0,
				"roughnessFactor":0.5
			}
		}
	],
	"meshes":[
		{
			"name":"arm01__MI_Crane_01",
			"primitives":[
				{
					"attributes":{
						"POSITION":0,
						"NORMAL":1,
						"TEXCOORD_0":2,
						"COLOR_0":3,
						"COLOR_1":4,
						"JOINTS_0":5,
						"WEIGHTS_0":6
					},
					"indices":7,
					"material":0
				}
			]
		},
		{
			"name":"arm02__MI_Crane_01",
			"primitives":[
				{
					"attributes":{
						"POSITION":9,
						"NORMAL":10,
						"TEXCOORD_0":11,
						"COLOR_0":12,
						"COLOR_1":13,
						"JOINTS_0":14,
						"WEIGHTS_0":15
					},
					"indices":7,
					"material":1
				}
			]
		},
		{
			"name":"arm03__MI_Crane_01",
			"primitives":[
				{
					"attributes":{
						"POSITION":16,
						"NORMAL":17,
						"TEXCOORD_0":18,
						"COLOR_0":19,
						"COLOR_1":20,
						"JOINTS_0":21,
						"WEIGHTS_0":22
					},
					"indices":7,
					"material":2
				}
			]
		},
		{
			"name":"arm04__MI_Crane_01",
			"primitives":[
				{
					"attributes":{
						"POSITION":23,
						"NORMAL":24,
						"TEXCOORD_0":25,
						"COLOR_0":26,
						"COLOR_1":27,
						"JOINTS_0":28,
						"WEIGHTS_0":29
					},
					"indices":7,
					"material":3
				}
			]
		},
		{
			"name":"Crane__MI_Crane_01",
			"primitives":[
				{
					"attributes":{
						"POSITION":30,
						"NORMAL":31,
						"TEXCOORD_0":32,
						"COLOR_0":33,
						"COLOR_1":34,
						"JOINTS_0":35,
						"WEIGHTS_0":36
					},
					"indices":37,
					"material":4
				}
			]
		},
		{
			"name":"Crane__MI_Crane_02",
			"primitives":[
				{
					"attributes":{
						"POSITION":38,
						"NORMAL":39,
						"TEXCOORD_0":40,
						"COLOR_0":41,
						"COLOR_1":42,
						"JOINTS_0":43,
						"WEIGHTS_0":44
					},
					"indices":45,
					"material":5
				}
			]
		}
	],
	"textures":[
		{
			"sampler":0,
			"source":0
		},
		{
			"sampler":0,
			"source":0
		},
		{
			"sampler":0,
			"source":0
		},
		{
			"sampler":0,
			"source":0
		},
		{
			"sampler":0,
			"source":0
		},
		{
			"sampler":0,
			"source":0
		}
	],
	"images":[
		{
			"mimeType":"image/png",
			"name":"MI_Crane_01_alb",
			"uri":"textures/MI_Crane_01_alb.png"
		}
	],
	"skins":[
		{
			"inverseBindMatrices":8,
			"joints":[
				5,
				4,
				0,
				1,
				2,
				3
			],
			"name":"Armature"
		}
	],
	"accessors":[
		{
			"bufferView":0,
			"componentType":5126,
			"count":100,
			"max":[
				0.019747724756598473,
				-0.11555986851453781,
				0.00402204180136323
			],
			"min":[
				0.0025752908550202847,
				-0.147036612033844,
				-0.005006355699151754
			],
			"type":"VEC3"
		},
		{
			"bufferView":1,
			"componentType":5126,
			"count":100,
			"type":"VEC3"
		},
		{
			"bufferView":2,
			"componentType":5126,
			"count":100,
			"type":"VEC2"
		},
		{
			"bufferView":3,
			"componentType":5121,
			"count":100,
			"normalized":true,
			"type":"VEC4"
		},
		{
			"bufferView":4,
			"componentType":5126,
			"count":100,
			"type":"VEC3"
		},
		{
			"bufferView":5,
			"componentType":5121,
			"count":100,
			"type":"VEC4"
		},
		{
			"bufferView":6,
			"componentType":5126,
			"count":100,
			"type":"VEC4"
		},
		{
			"bufferView":7,
			"componentType":5123,
			"count":342,
			"type":"SCALAR"
		},
		{
			"bufferView":8,
			"componentType":5126,
			"count":6,
			"type":"MAT4"
		},
		{
			"bufferView":9,
			"componentType":5126,
			"count":100,
			"max":[
				0.019747724756598473,
				-0.11555986851453781,
				0.00402204180136323
			],
			"min":[
				0.0025752908550202847,
				-0.147036612033844,
				-0.005006355699151754
			],
			"type":"VEC3"
		},
		{
			"bufferView":10,
			"componentType":5126,
			"count":100,
			"type":"VEC3"
		},
		{
			"bufferView":11,
			"componentType":5126,
			"count":100,
			"type":"VEC2"
		},
		{
			"bufferView":12,
			"componentType":5121,
			"count":100,
			"normalized":true,
			"type":"VEC4"
		},
		{
			"bufferView":13,
			"componentType":5126,
			"count":100,
			"type":"VEC3"
		},
		{
			"bufferView":14,
			"componentType":5121,
			"count":100,
			"type":"VEC4"
		},
		{
			"bufferView":15,
			"componentType":5126,
			"count":100,
			"type":"VEC4"
		},
		{
			"bufferView":16,
			"componentType":5126,
			"count":100,
			"max":[
				0.019747724756598473,
				-0.11555986851453781,
				0.00402204180136323
			],
			"min":[
				0.0025752908550202847,
				-0.147036612033844,
				-0.005006355699151754
			],
			"type":"VEC3"
		},
		{
			"bufferView":17,
			"componentType":5126,
			"count":100,
			"type":"VEC3"
		},
		{
			"bufferView":18,
			"componentType":5126,
			"count":100,
			"type":"VEC2"
		},
		{
			"bufferView":19,
			"componentType":5121,
			"count":100,
			"normalized":true,
			"type":"VEC4"
		},
		{
			"bufferView":20,
			"componentType":5126,
			"count":100,
			"type":"VEC3"
		},
		{
			"bufferView":21,
			"componentType":5121,
			"count":100,
			"type":"VEC4"
		},
		{
			"bufferView":22,
			"componentType":5126,
			"count":100,
			"type":"VEC4"
		},
		{
			"bufferView":23,
			"componentType":5126,
			"count":100,
			"max":[
				0.019747724756598473,
				-0.11555986851453781,
				0.00402204180136323
			],
			"min":[
				0.0025752908550202847,
				-0.147036612033844,
				-0.005006355699151754
			],
			"type":"VEC3"
		},
		{
			"bufferView":24,
			"componentType":5126,
			"count":100,
			"type":"VEC3"
		},
		{
			"bufferView":25,
			"componentType":5126,
			"count":100,
			"type":"VEC2"
		},
		{
			"bufferView":26,
			"componentType":5121,
			"count":100,
			"normalized":true,
			"type":"VEC4"
		},
		{
			"bufferView":27,
			"componentType":5126,
			"count":100,
			"type":"VEC3"
		},
		{
			"bufferView":28,
			"componentType":5121,
			"count":100,
			"type":"VEC4"
		},
		{
			"bufferView":29,
			"componentType":5126,
			"count":100,
			"type":"VEC4"
		},
		{
			"bufferView":30,
			"componentType":5126,
			"count":70,
			"max":[
				0.011883405037224293,
				-0.11323441565036774,
				0.011391250416636467
			],
			"min":[
				-0.011883405037224293,
				-0.12155332416296005,
				-0.012375552207231522
			],
			"type":"VEC3"
		},
		{
			"bufferView":31,
			"componentType":5126,
			"count":70,
			"type":"VEC3"
		},
		{
			"bufferView":32,
			"componentType":5126,
			"count":70,
			"type":"VEC2"
		},
		{
			"bufferView":33,
			"componentType":5121,
			"count":70,
			"normalized":true,
			"type":"VEC4"
		},
		{
			"bufferView":34,
			"componentType":5126,
			"count":70,
			"type":"VEC3"
		},
		{
			"bufferView":35,
			"componentType":5121,
			"count":70,
			"type":"VEC4"
		},
		{
			"bufferView":36,
			"componentType":5126,
			"count":70,
			"type":"VEC4"
		},
		{
			"bufferView":37,
			"componentType":5123,
			"count":132,
			"type":"SCALAR"
		},
		{
			"bufferView":38,
			"componentType":5126,
			"count":155,
			"max":[
				0.007301948498934507,
				0.0832599550485611,
				0.006809795740991831
			],
			"min":[
				-0.007301948498934507,
				-0.11323443800210953,
				-0.007794084958732128
			],
			"type":"VEC3"
		},
		{
			"bufferView":39,
			"componentType":5126,
			"count":155,
			"type":"VEC3"
		},
		{
			"bufferView":40,
			"componentType":5126,
			"count":155,
			"type":"VEC2"
		},
		{
			"bufferView":41,
			"componentType":5121,
			"count":155,
			"normalized":true,
			"type":"VEC4"
		},
		{
			"bufferView":42,
			"componentType":5126,
			"count":155,
			"type":"VEC3"
		},
		{
			"bufferView":43,
			"componentType":5121,
			"count":155,
			"type":"VEC4"
		},
		{
			"bufferView":44,
			"componentType":5126,
			"count":155,
			"type":"VEC4"
		},
		{
			"bufferView":45,
			"componentType":5123,
			"count":528,
			"type":"SCALAR"
		}
	],
	"bufferViews":[
		{
			"buffer":0,
			"byteLength":1200,
			"byteOffset":0,
			"target":34962
		},
		{
			"buffer":0,
			"byteLength":1200,
			"byteOffset":1200,
			"target":34962
		},
		{
			"buffer":0,
			"byteLength":800,
			"byteOffset":2400,
			"target":34962
		},
		{
			"buffer":0,
			"byteLength":400,
			"byteOffset":3200,
			"target":34962
		},
		{
			"buffer":0,
			"byteLength":1200,
			"byteOffset":3600,
			"target":34962
		},
		{
			"buffer":0,
			"byteLength":400,
			"byteOffset":4800,
			"target":34962
		},
		{
			"buffer":0,
			"byteLength":1600,
			"byteOffset":5200,
			"target":34962
		},
		{
			"buffer":0,
			"byteLength":684,
			"byteOffset":6800,
			"target":34963
		},
		{
			"buffer":0,
			"byteLength":384,
			"byteOffset":7484
		},
		{
			"buffer":0,
			"byteLength":1200,
			"byteOffset":7868,
			"target":34962
		},
		{
			"buffer":0,
			"byteLength":1200,
			"byteOffset":9068,
			"target":34962
		},
		{
			"buffer":0,
			"byteLength":800,
			"byteOffset":10268,
			"target":34962
		},
		{
			"buffer":0,
			"byteLength":400,
			"byteOffset":11068,
			"target":34962
		},
		{
			"buffer":0,
			"byteLength":1200,
			"byteOffset":11468,
			"target":34962
		},
		{
			"buffer":0,
			"byteLength":400,
			"byteOffset":12668,
			"target":34962
		},
		{
			"buffer":0,
			"byteLength":1600,
			"byteOffset":13068,
			"target":34962
		},
		{
			"buffer":0,
			"byteLength":1200,
			"byteOffset":14668,
			"target":34962
		},
		{
			"buffer":0,
			"byteLength":1200,
			"byteOffset":15868,
			"target":34962
		},
		{
			"buffer":0,
			"byteLength":800,
			"byteOffset":17068,
			"target":34962
		},
		{
			"buffer":0,
			"byteLength":400,
			"byteOffset":17868,
			"target":34962
		},
		{
			"buffer":0,
			"byteLength":1200,
			"byteOffset":18268,
			"target":34962
		},
		{
			"buffer":0,
			"byteLength":400,
			"byteOffset":19468,
			"target":34962
		},
		{
			"buffer":0,
			"byteLength":1600,
			"byteOffset":19868,
			"target":34962
		},
		{
			"buffer":0,
			"byteLength":1200,
			"byteOffset":21468,
			"target":34962
		},
		{
			"buffer":0,
			"byteLength":1200,
			"byteOffset":22668,
			"target":34962
		},
		{
			"buffer":0,
			"byteLength":800,
			"byteOffset":23868,
			"target":34962
		},
		{
			"buffer":0,
			"byteLength":400,
			"byteOffset":24668,
			"target":34962
		},
		{
			"buffer":0,
			"byteLength":1200,
			"byteOffset":25068,
			"target":34962
		},
		{
			"buffer":0,
			"byteLength":400,
			"byteOffset":26268,
			"target":34962
		},
		{
			"buffer":0,
			"byteLength":1600,
			"byteOffset":26668,
			"target":34962
		},
		{
			"buffer":0,
			"byteLength":840,
			"byteOffset":28268,
			"target":34962
		},
		{
			"buffer":0,
			"byteLength":840,
			"byteOffset":29108,
			"target":34962
		},
		{
			"buffer":0,
			"byteLength":560,
			"byteOffset":29948,
			"target":34962
		},
		{
			"buffer":0,
			"byteLength":280,
			"byteOffset":30508,
			"target":34962
		},
		{
			"buffer":0,
			"byteLength":840,
			"byteOffset":30788,
			"target":34962
		},
		{
			"buffer":0,
			"byteLength":280,
			"byteOffset":31628,
			"target":34962
		},
		{
			"buffer":0,
			"byteLength":1120,
			"byteOffset":31908,
			"target":34962
		},
		{
			"buffer":0,
			"byteLength":264,
			"byteOffset":33028,
			"target":34963
		},
		{
			"buffer":0,
			"byteLength":1860,
			"byteOffset":33292,
			"target":34962
		},
		{
			"buffer":0,
			"byteLength":1860,
			"byteOffset":35152,
			"target":34962
		},
		{
			"buffer":0,
			"byteLength":1240,
			"byteOffset":37012,
			"target":34962
		},
		{
			"buffer":0,
			"byteLength":620,
			"byteOffset":38252,
			"target":34962
		},
		{
			"buffer":0,
			"byteLength":1860,
			"byteOffset":38872,
			"target":34962
		},
		{
			"buffer":0,
			"byteLength":620,
			"byteOffset":40732,
			"target":34962
		},
		{
			"buffer":0,
			"byteLength":2480,
			"byteOffset":41352,
			"target":34962
		},
		{
			"buffer":0,
			"byteLength":1056,
			"byteOffset":43832,
			"target":34963
		}
	],
	"samplers":[
		{
			"magFilter":9729,
			"minFilter":9987
		}
	],
	"buffers":[
		{
			"byteLength":44888,
			"uri":"crane.bin"
		}
	]
}
