{
	"asset":{
		"generator":"Khronos glTF Blender I/O v4.2.83",
		"version":"2.0"
	},
	"extensionsUsed":[
		"KHR_materials_specular"
	],
	"scene":0,
	"scenes":[
		{
			"name":"Scene",
			"nodes":[
				2
			]
		}
	],
	"nodes":[
		{
			"name":"CraneFence",
			"rotation":[
				-0.7071067690849304,
				0,
				0,
				0.7071067690849304
			]
		},
		{
			"mesh":0,
			"name":"CraneFence__MI_handrail_01",
			"skin":0
		},
		{
			"children":[
				1,
				0
			],
			"name":"Armature"
		}
	],
	"materials":[
		{
			"doubleSided":true,
			"extensions":{
				"KHR_materials_specular":{
					"specularFactor":0
				}
			},
			"name":"MI_handrail_01",
			"pbrMetallicRoughness":{
				"baseColorTexture":{
					"index":0
				},
				"metallicFactor":0
			}
		}
	],
	"meshes":[
		{
			"name":"CraneFence__MI_handrail_01",
			"primitives":[
				{
					"attributes":{
						"POSITION":0,
						"NORMAL":1,
						"TEXCOORD_0":2,
						"COLOR_0":3,
						"COLOR_1":4,
						"JOINTS_0":5,
						"WEIGHTS_0":6
					},
					"indices":7,
					"material":0
				}
			]
		}
	],
	"textures":[
		{
			"sampler":0,
			"source":0
		}
	],
	"images":[
		{
			"mimeType":"image/png",
			"name":"MI_handrail_01_alb",
			"uri":"textures/MI_handrail_01_alb.png"
		}
	],
	"skins":[
		{
			"inverseBindMatrices":8,
			"joints":[
				0
			],
			"name":"Armature"
		}
	],
	"accessors":[
		{
			"bufferView":0,
			"componentType":5126,
			"count":137,
			"max":[
				0.14718259871006012,
				1.125,
				1.2930309772491455
			],
			"min":[
				-0.14718259871006012,
				0,
				-1.2930309772491455
			],
			"type":"VEC3"
		},
		{
			"bufferView":1,
			"componentType":5126,
			"count":137,
			"type":"VEC3"
		},
		{
			"bufferView":2,
			"componentType":5126,
			"count":137,
			"type":"VEC2"
		},
		{
			"bufferView":3,
			"componentType":5121,
			"count":137,
			"normalized":true,
			"type":"VEC4"
		},
		{
			"bufferView":4,
			"componentType":5126,
			"count":137,
			"type":"VEC3"
		},
		{
			"bufferView":5,
			"componentType":5121,
			"count":137,
			"type":"VEC4"
		},
		{
			"bufferView":6,
			"componentType":5126,
			"count":137,
			"type":"VEC4"
		},
		{
			"bufferView":7,
			"componentType":5123,
			"count":468,
			"type":"SCALAR"
		},
		{
			"bufferView":8,
			"componentType":5126,
			"count":1,
			"type":"MAT4"
		}
	],
	"bufferViews":[
		{
			"buffer":0,
			"byteLength":1644,
			"byteOffset":0,
			"target":34962
		},
		{
			"buffer":0,
			"byteLength":1644,
			"byteOffset":1644,
			"target":34962
		},
		{
			"buffer":0,
			"byteLength":1096,
			"byteOffset":3288,
			"target":34962
		},
		{
			"buffer":0,
			"byteLength":548,
			"byteOffset":4384,
			"target":34962
		},
		{
			"buffer":0,
			"byteLength":1644,
			"byteOffset":4932,
			"target":34962
		},
		{
			"buffer":0,
			"byteLength":548,
			"byteOffset":6576,
			"target":34962
		},
		{
			"buffer":0,
			"byteLength":2192,
			"byteOffset":7124,
			"target":34962
		},
		{
			"buffer":0,
			"byteLength":936,
			"byteOffset":9316,
			"target":34963
		},
		{
			"buffer":0,
			"byteLength":64,
			"byteOffset":10252
		}
	],
	"samplers":[
		{
			"magFilter":9729,
			"minFilter":9987
		}
	],
	"buffers":[
		{
			"byteLength":10316,
			"uri":"railing.bin"
		}
	]
}
